<?xml version="1.0" standalone="no"?>
<!DOCTYPE svg PUBLIC "-//W3C//DTD SVG 20010904//EN"
 "http://www.w3.org/TR/2001/REC-SVG-20010904/DTD/svg10.dtd">
<svg version="1.0" xmlns="http://www.w3.org/2000/svg"
 width="209.000000pt" height="241.000000pt" viewBox="0 0 209.000000 241.000000"
 preserveAspectRatio="xMidYMid meet">
<metadata>
Created by potrace 1.16, written by Peter Selinger 2001-2019
</metadata>
<g transform="translate(0.000000,241.000000) scale(0.100000,-0.100000)"
fill="#000000" stroke="none">
<path d="M1285 2399 c-244 -32 -443 -162 -532 -347 0 -2 -10 2 -21 9 -48 30
-240 -79 -355 -200 -134 -144 -195 -299 -203 -515 -2 -65 -9 -135 -15 -155
-15 -46 -77 -170 -123 -247 -20 -32 -36 -67 -36 -76 0 -35 44 -69 110 -87 l65
-16 5 -182 c5 -198 8 -209 74 -257 25 -19 45 -21 224 -26 l197 -5 15 -137 c8
-76 20 -142 26 -148 6 -6 18 -8 27 -4 21 8 21 50 3 189 -7 55 -12 101 -11 103
1 1 31 7 66 13 108 17 200 78 183 122 -9 25 -32 21 -70 -12 -18 -17 -50 -35
-71 -42 -43 -13 -463 -25 -519 -14 -20 3 -47 18 -60 32 -24 25 -24 30 -24 212
0 102 -4 191 -8 197 -4 6 -42 19 -84 28 -43 10 -80 21 -83 26 -3 5 12 38 34
74 106 173 131 247 136 396 5 188 47 314 147 447 70 92 201 187 315 227 l38
13 0 -96 c0 -92 2 -101 38 -173 55 -112 125 -172 293 -255 112 -54 135 -69
141 -91 12 -44 8 -135 -6 -169 -7 -18 -10 -40 -7 -49 16 -42 200 21 293 101
24 20 61 65 84 100 37 56 47 65 88 75 113 28 273 126 334 205 178 226 93 508
-196 650 -51 25 -126 54 -167 64 -93 23 -251 33 -345 20z m232 -239 c51 -23
83 -70 83 -123 0 -48 -20 -87 -75 -146 -23 -25 -45 -58 -49 -73 -6 -26 -10
-28 -57 -28 l-50 0 7 38 c9 49 17 63 69 122 25 28 45 60 45 71 0 38 -19 59
-53 59 -37 0 -57 -15 -57 -42 0 -15 -9 -18 -60 -18 -33 0 -60 3 -60 8 0 4 5
23 10 43 25 90 148 134 247 89z"/>
<path d="M442 2093 c-214 -142 -357 -367 -394 -618 -13 -91 -8 -115 22 -115
24 0 24 1 38 105 14 107 63 239 124 333 61 93 173 204 254 251 67 39 85 57 77
77 -9 25 -48 15 -121 -33z"/>
<path d="M1646 1368 c-2 -7 -9 -46 -15 -86 -21 -135 -91 -284 -187 -398 -45
-52 -54 -70 -54 -101 0 -35 84 -699 95 -749 6 -27 30 -37 48 -20 11 12 6 72
-34 372 -26 198 -48 372 -48 388 -1 19 12 42 42 76 87 98 165 261 193 404 13
63 15 93 7 105 -13 21 -42 26 -47 9z"/>
<path d="M1674 974 c-22 -41 -63 -106 -91 -144 l-53 -69 40 -302 c22 -167 44
-307 49 -312 5 -5 17 -7 27 -5 26 5 25 23 -16 338 l-34 265 55 75 c64 89 114
192 106 214 -4 9 -15 16 -25 16 -14 0 -30 -22 -58 -76z"/>
</g>
</svg>
