<?xml version="1.0" standalone="no"?>
<!DOCTYPE svg PUBLIC "-//W3C//DTD SVG 20010904//EN"
 "http://www.w3.org/TR/2001/REC-SVG-20010904/DTD/svg10.dtd">
<svg version="1.0" xmlns="http://www.w3.org/2000/svg"
 width="274.000000pt" height="184.000000pt" viewBox="0 0 274.000000 184.000000"
 preserveAspectRatio="xMidYMid meet">
<metadata>
Created by potrace 1.16, written by Peter Selinger 2001-2019
</metadata>
<g transform="translate(0.000000,184.000000) scale(0.100000,-0.100000)"
fill="#000000" stroke="none">
<path d="M2242 1833 c-7 -3 -19 -18 -27 -34 -15 -29 -16 -29 -41 -12 -25 16
-27 16 -45 -8 -24 -31 -24 -36 4 -50 12 -6 23 -13 25 -14 2 -1 -4 -18 -13 -36
-15 -31 -20 -34 -54 -31 -30 3 -43 -2 -69 -26 l-31 -29 -52 25 c-39 20 -72 27
-132 30 -85 4 -120 -5 -174 -46 -27 -20 -35 -22 -55 -11 -12 7 -36 12 -53 11
-24 0 -35 7 -53 35 l-23 36 27 28 c23 24 25 31 14 44 -16 19 -49 19 -56 0 -5
-12 -12 -8 -34 15 -29 31 -54 37 -80 20 -13 -8 -13 -10 -1 -10 11 0 9 -4 -4
-14 -18 -13 -18 -14 9 -9 28 6 29 5 22 -32 -6 -28 -3 -42 10 -56 13 -15 15
-22 6 -31 -31 -31 9 -96 42 -68 10 8 15 7 20 -5 3 -8 18 -21 33 -28 15 -6 38
-24 50 -38 13 -15 36 -32 52 -39 16 -6 32 -19 36 -27 7 -19 9 -17 -40 -29 -31
-7 -43 -16 -55 -42 -9 -20 -25 -35 -40 -38 -14 -3 -33 -8 -42 -10 -32 -9 -51
-85 -46 -189 l4 -95 -63 -56 c-48 -42 -69 -55 -85 -50 -12 3 -27 1 -33 -4 -7
-6 -47 19 -115 71 -87 66 -106 86 -110 112 -4 24 -17 40 -60 69 -30 21 -70 50
-88 64 l-33 26 42 36 c66 57 85 125 54 198 -8 19 -10 32 -5 29 14 -9 12 1 -5
34 -12 25 -12 31 0 47 24 32 18 54 -15 60 -35 8 -37 15 -10 39 30 28 24 37
-22 33 -38 -3 -43 0 -46 20 -4 30 -13 28 -39 -11 l-23 -32 0 35 -1 35 -15 -35
-15 -35 -14 25 c-13 25 -14 24 -17 -19 l-3 -44 -33 47 c-18 25 -37 46 -43 46
-14 0 -11 -42 6 -74 20 -38 11 -45 -27 -23 -32 18 -50 15 -30 -5 22 -22 12
-37 -29 -45 -44 -9 -57 -26 -22 -31 32 -5 29 -17 -7 -32 -17 -7 -30 -16 -30
-21 0 -13 57 -11 82 2 18 9 19 9 10 -7 -6 -10 -21 -19 -34 -19 -19 0 -24 -6
-26 -33 -2 -22 3 -41 14 -53 20 -23 20 -23 -31 -35 -31 -7 -44 -16 -55 -41
-11 -22 -24 -33 -46 -37 -59 -12 -69 -34 -72 -169 l-4 -121 -40 -58 c-34 -48
-46 -58 -69 -58 -31 0 -39 -14 -14 -24 14 -5 14 -9 0 -37 -16 -30 -16 -31 4
-24 17 5 21 2 21 -17 1 -22 1 -22 15 -4 8 11 15 14 15 8 0 -7 4 -12 9 -12 5 0
7 10 3 22 -3 14 -2 19 7 14 8 -6 8 -1 0 18 -11 23 -8 30 27 70 21 24 42 45 47
45 4 1 7 -18 7 -42 0 -71 20 -211 32 -218 6 -4 32 -10 59 -13 l48 -7 -36 -75
-36 -75 21 -22 22 -23 -47 -69 c-25 -39 -79 -102 -120 -141 -40 -39 -73 -75
-73 -81 0 -6 9 -41 20 -77 20 -62 23 -66 51 -66 25 0 28 3 20 18 -5 10 -11 48
-12 85 l-2 68 89 78 c49 42 102 92 117 111 28 32 29 33 68 20 49 -17 52 -13
69 77 7 34 16 60 21 57 5 -3 9 -12 9 -21 0 -8 12 -42 26 -74 29 -64 32 -65 96
-33 15 8 31 14 37 14 5 0 30 -37 54 -83 25 -45 71 -122 101 -171 31 -48 56
-92 56 -97 0 -18 32 -59 46 -59 8 0 25 17 38 38 30 44 71 150 63 158 -8 8 -67
-29 -96 -60 -14 -14 -28 -26 -32 -26 -11 0 -56 99 -104 229 l-43 115 21 28 21
28 -26 53 c-15 28 -39 72 -54 96 -26 43 -26 44 -5 38 26 -6 26 -3 2 125 -15
79 -16 101 -6 115 11 15 14 15 40 -5 36 -28 51 -28 67 3 l13 24 110 -58 c108
-57 110 -58 107 -91 -2 -21 0 -30 7 -25 7 4 11 -3 12 -17 0 -21 1 -21 8 -4 7
18 8 18 14 3 7 -20 33 -23 40 -4 4 9 8 8 16 -3 9 -13 11 -13 11 3 0 9 4 17 8
17 5 0 7 13 4 29 -3 25 3 34 57 75 48 38 61 43 61 29 1 -34 20 -218 26 -245 4
-22 13 -29 41 -34 38 -7 37 0 16 -90 -4 -16 2 -24 29 -34 18 -7 35 -15 37 -16
5 -4 -68 -123 -120 -195 -26 -36 -73 -88 -103 -116 -31 -28 -56 -59 -56 -69 1
-11 11 -48 23 -84 15 -45 28 -66 41 -68 25 -5 44 14 28 30 -7 7 -12 41 -12 84
l0 72 84 77 c73 66 176 179 219 238 12 17 22 18 104 12 l92 -7 59 -107 c33
-58 94 -157 136 -220 42 -62 76 -116 76 -120 0 -4 11 -18 25 -31 35 -32 52
-21 92 60 61 125 51 141 -41 66 -40 -33 -57 -42 -64 -33 -17 21 -48 89 -99
217 -69 170 -69 170 -44 170 14 0 21 6 21 18 0 10 -20 121 -45 246 -41 211
-43 231 -29 257 8 16 18 29 22 29 5 0 75 -36 158 -79 112 -60 150 -85 152
-101 2 -11 -10 -51 -27 -87 -31 -66 -33 -96 -6 -107 13 -5 34 24 91 126 7 11
17 25 23 31 6 6 11 16 11 23 0 6 29 64 65 127 66 119 89 183 83 232 l-3 28
-33 -28 c-21 -17 -55 -71 -91 -144 -32 -64 -67 -126 -77 -139 l-19 -22 -142
110 c-86 67 -143 117 -143 128 0 9 -21 35 -47 58 l-46 41 50 49 c44 42 52 56
58 99 11 89 14 95 40 95 14 0 38 14 57 33 18 18 46 39 61 47 18 9 30 25 34 42
7 37 19 44 33 18 15 -28 39 -25 51 6 7 21 6 31 -6 44 -9 10 -11 20 -5 26 6 6
6 22 0 42 -7 26 -6 34 6 39 8 3 21 0 29 -7 9 -7 15 -8 15 -2 0 5 -7 13 -16 16
-8 3 -13 10 -10 15 10 16 -33 26 -62 14z"/>
</g>
</svg>
