<?xml version="1.0" standalone="no"?>
<!DOCTYPE svg PUBLIC "-//W3C//DTD SVG 20010904//EN"
 "http://www.w3.org/TR/2001/REC-SVG-20010904/DTD/svg10.dtd">
<svg version="1.0" xmlns="http://www.w3.org/2000/svg"
 width="443.000000pt" height="114.000000pt" viewBox="0 0 443.000000 114.000000"
 preserveAspectRatio="xMidYMid meet">
<metadata>
Created by potrace 1.16, written by Peter Selinger 2001-2019
</metadata>
<g transform="translate(0.000000,114.000000) scale(0.100000,-0.100000)"
fill="#000000" stroke="none">
<path d="M1369 896 c-130 -46 -197 -148 -187 -284 6 -77 30 -132 80 -178 102
-97 262 -108 389 -28 42 26 99 96 100 123 0 9 9 -9 19 -39 22 -66 70 -112 135
-130 95 -27 227 15 284 89 23 30 26 44 26 108 0 40 1 73 3 73 2 0 12 -5 23
-10 17 -10 19 -22 19 -136 0 -120 -1 -126 -25 -150 -14 -14 -25 -34 -25 -44 0
-50 197 -94 255 -56 30 19 33 51 6 65 -21 12 -32 43 -21 60 5 9 14 9 34 1 65
-24 148 5 194 69 l29 40 11 -38 c18 -57 36 -68 133 -75 138 -11 209 30 209
119 0 55 -23 83 -99 124 -69 36 -78 46 -61 66 17 20 22 19 65 -15 38 -30 78
-39 90 -19 12 18 -4 75 -28 100 -20 22 -30 24 -112 23 -132 -1 -185 -38 -185
-126 0 -51 20 -79 85 -124 62 -42 75 -67 38 -72 -14 -2 -36 10 -62 34 -25 22
-48 35 -59 32 -15 -4 -17 4 -17 66 0 92 -24 141 -86 174 -47 25 -87 24 -143
-4 -37 -18 -46 -18 -46 2 0 39 -194 -10 -231 -58 l-17 -21 -11 21 c-6 12 -32
34 -58 49 -98 57 -263 22 -323 -70 l-24 -38 -11 54 c-21 103 -105 202 -193
227 -51 14 -159 12 -203 -4z m126 -129 c38 -38 75 -143 75 -213 0 -73 -54
-106 -109 -68 -49 34 -102 204 -81 260 23 62 66 70 115 21z m520 -127 c16 -25
33 -144 25 -166 -10 -26 -41 -32 -58 -11 -14 17 -42 115 -42 148 0 37 25 62
50 49 10 -6 22 -15 25 -20z"/>
<path d="M3123 888 c-27 -13 -53 -66 -53 -106 0 -76 61 -212 96 -212 22 0 62
70 80 141 25 102 -2 172 -72 184 -16 2 -39 -1 -51 -7z"/>
<path d="M3105 495 c-41 -40 -33 -105 16 -130 42 -22 67 -18 100 14 56 57 23
141 -56 141 -25 0 -44 -8 -60 -25z"/>
</g>
</svg>
