<?xml version="1.0" standalone="no"?>
<!DOCTYPE svg PUBLIC "-//W3C//DTD SVG 20010904//EN"
 "http://www.w3.org/TR/2001/REC-SVG-20010904/DTD/svg10.dtd">
<svg version="1.0" xmlns="http://www.w3.org/2000/svg"
 width="263.000000pt" height="192.000000pt" viewBox="0 0 263.000000 192.000000"
 preserveAspectRatio="xMidYMid meet">
<metadata>
Created by potrace 1.16, written by Peter Selinger 2001-2019
</metadata>
<g transform="translate(0.000000,192.000000) scale(0.100000,-0.100000)"
fill="#000000" stroke="none">
<path d="M605 1909 c-158 -23 -300 -95 -416 -209 -238 -236 -250 -587 -30
-848 l41 -48 -30 -137 c-34 -155 -35 -167 -17 -167 7 0 80 33 162 73 l150 73
45 -15 c32 -10 91 -15 205 -15 146 0 167 2 237 26 123 41 204 92 298 187 132
133 184 259 182 441 -2 328 -267 599 -625 640 -94 11 -119 11 -202 -1z m273
-294 c66 -36 116 -91 151 -164 23 -50 26 -68 26 -167 0 -108 -1 -112 -39 -188
l-38 -78 36 -30 c20 -16 36 -35 36 -41 0 -6 -14 -26 -32 -44 l-31 -32 -48 43
-48 43 -58 -19 c-76 -26 -185 -21 -260 11 -59 26 -129 95 -165 162 -21 39 -23
57 -23 169 0 117 2 129 29 183 33 69 80 118 139 148 67 35 87 39 182 36 78 -2
97 -7 143 -32z"/>
<path d="M650 1509 c-65 -26 -111 -103 -118 -199 -7 -101 25 -185 88 -232 27
-20 109 -34 136 -24 15 6 14 10 -12 37 l-28 29 37 37 37 37 36 -34 c34 -33 36
-34 49 -16 50 68 37 253 -23 319 -44 49 -140 71 -202 46z"/>
<path d="M1720 1399 c-41 -10 -103 -32 -137 -49 l-63 -29 0 -68 c0 -102 -25
-197 -77 -303 -40 -82 -61 -109 -145 -193 l-98 -97 25 -78 c78 -247 310 -426
599 -462 95 -12 157 -8 271 16 l71 14 144 -68 c179 -85 180 -85 180 -67 0 8
-13 79 -30 156 l-30 141 46 52 c59 67 120 192 140 286 37 177 -15 376 -137
519 -90 106 -237 194 -383 231 -106 27 -272 27 -376 -1z m402 -584 c70 -187
127 -343 127 -347 1 -5 -35 -8 -78 -8 l-79 0 -24 73 -25 72 -133 0 -133 0 -25
-72 -26 -73 -79 0 c-71 0 -78 2 -72 17 4 10 63 168 132 351 l126 333 81 -3 81
-3 127 -340z"/>
<path d="M1906 962 c-3 -5 -24 -60 -46 -121 l-39 -111 89 0 89 0 -40 118 c-45
128 -44 128 -53 114z"/>
</g>
</svg>
