<?xml version="1.0" standalone="no"?>
<!DOCTYPE svg PUBLIC "-//W3C//DTD SVG 20010904//EN"
 "http://www.w3.org/TR/2001/REC-SVG-20010904/DTD/svg10.dtd">
<svg version="1.0" xmlns="http://www.w3.org/2000/svg"
 width="800.000000pt" height="800.000000pt" viewBox="0 0 800.000000 800.000000"
 preserveAspectRatio="xMidYMid meet">
<metadata>
Created by potrace 1.16, written by Peter Selinger 2001-2019
</metadata>
<g transform="translate(0.000000,800.000000) scale(0.100000,-0.100000)"
fill="#000000" stroke="none">
<path d="M3314 6788 c-39 -44 -103 -156 -208 -366 l-106 -212 -58 0 c-31 0
-190 -9 -352 -20 -716 -48 -835 -65 -1027 -147 -195 -85 -342 -227 -404 -393
-21 -56 -40 -140 -32 -140 3 0 25 22 49 49 90 100 264 211 411 262 134 46 306
68 811 105 l93 7 -26 -68 c-25 -67 -66 -162 -130 -300 -18 -38 -76 -169 -129
-290 -54 -121 -112 -254 -131 -295 -52 -117 -162 -427 -190 -536 -30 -114 -55
-261 -55 -320 0 -77 99 -232 171 -270 16 -8 30 -13 30 -12 1 2 3 57 4 123 2
92 9 143 29 220 55 207 139 431 292 778 42 94 84 190 94 212 10 22 33 76 53
120 63 142 161 397 233 603 l19 52 47 0 c25 0 54 3 64 7 25 9 17 -16 -56 -187
-195 -459 -383 -1013 -445 -1311 -37 -182 -42 -257 -17 -305 25 -48 76 -98 94
-92 7 3 26 54 42 114 49 183 87 266 186 415 54 80 178 234 261 324 21 22 47
51 59 65 18 20 20 21 14 5 -96 -260 -135 -413 -141 -561 -5 -107 -3 -125 15
-167 26 -58 70 -87 132 -87 67 0 140 55 251 191 l73 88 17 -55 c28 -88 82
-134 159 -134 23 0 57 7 75 16 50 23 113 92 144 156 l27 58 17 -54 c23 -71 72
-116 126 -116 61 0 105 41 201 184 33 49 60 88 60 85 0 -2 -4 -31 -10 -63 -8
-52 -7 -63 11 -92 40 -65 129 -122 129 -82 0 27 78 223 140 354 94 196 175
327 368 597 19 26 36 46 39 43 2 -2 -7 -26 -20 -53 -31 -61 -91 -221 -127
-338 -39 -128 -53 -220 -48 -311 5 -88 22 -125 69 -150 69 -35 141 -4 242 105
31 34 57 56 57 49 0 -7 -7 -58 -15 -113 -20 -134 -19 -248 1 -290 27 -58 122
-140 140 -122 4 3 17 73 30 154 31 201 99 493 114 493 4 0 20 -17 36 -37 53
-70 208 -225 294 -293 313 -248 626 -326 899 -224 243 91 411 340 411 608 0
310 -189 551 -535 681 -98 37 -100 30 -5 -17 198 -100 349 -260 411 -438 19
-54 23 -86 23 -195 l1 -130 -38 -79 c-29 -62 -55 -97 -115 -156 -125 -122
-267 -179 -423 -168 -86 7 -179 50 -301 140 -82 61 -254 227 -335 323 -87 104
-123 150 -123 157 0 3 24 14 53 23 75 25 196 89 238 127 56 50 72 90 67 164
-4 68 -21 101 -71 138 -36 27 -138 26 -224 -2 -35 -11 -63 -19 -63 -18 0 0 37
39 82 86 309 323 580 832 595 1121 8 142 -16 179 -117 179 -68 0 -119 -27
-204 -109 -159 -154 -364 -531 -531 -981 -85 -230 -139 -401 -235 -750 -18
-65 -226 -305 -255 -294 -34 13 -10 87 133 399 128 281 155 349 176 445 15 64
15 81 4 115 -12 38 -15 40 -60 43 -57 4 -102 -14 -177 -72 -66 -51 -130 -119
-203 -218 -28 -37 -52 -68 -54 -68 -5 0 26 71 97 217 38 79 69 144 69 146 0 9
-119 56 -157 62 -53 8 -68 -6 -136 -132 -109 -201 -205 -440 -273 -677 -33
-114 -38 -124 -129 -250 -136 -189 -185 -238 -185 -186 0 122 155 552 266 737
10 17 16 34 13 37 -23 24 -209 33 -249 13 -34 -17 -100 -151 -174 -352 -136
-371 -185 -483 -226 -520 -91 -82 -19 250 114 530 147 309 299 480 459 515 31
7 57 16 57 19 0 31 -90 150 -139 183 -68 46 -185 5 -298 -104 -179 -174 -343
-513 -390 -810 l-18 -110 -74 -91 c-104 -129 -201 -227 -224 -227 -17 0 -19 5
-12 48 8 51 73 235 155 432 155 375 199 534 165 587 -15 22 -21 25 -58 19
-136 -21 -311 -171 -500 -426 -93 -126 -92 -125 -62 -45 44 116 254 641 289
723 19 42 59 138 91 212 31 74 62 141 67 148 6 7 33 12 63 12 71 0 493 37 637
55 228 30 372 83 460 169 54 54 77 98 85 164 5 48 -14 138 -37 172 -9 13 -12
12 -22 -5 -46 -79 -179 -176 -282 -206 -136 -40 -776 -108 -776 -83 0 17 156
318 208 402 51 82 51 82 31 101 -22 21 -104 49 -164 57 -33 5 -43 2 -61 -18z
m2760 -212 c-26 -187 -178 -509 -373 -790 -69 -101 -183 -247 -188 -242 -4 4
128 339 212 536 100 236 230 492 275 540 l42 45 19 -24 c15 -18 18 -33 13 -65z
m-344 -1361 c0 -23 -76 -90 -140 -124 -58 -31 -136 -56 -210 -66 l-45 -6 65
43 c144 96 277 167 313 168 9 0 17 -7 17 -15z"/>
<path d="M6077 4088 c-79 -105 -193 -403 -237 -619 -31 -151 -36 -248 -16
-287 38 -73 139 -159 156 -132 4 7 11 40 15 74 22 202 153 595 283 853 l32 62
-34 21 c-35 21 -139 60 -162 60 -7 0 -24 -15 -37 -32z"/>
<path d="M1345 4026 c-45 -59 -69 -141 -69 -241 -1 -81 2 -95 26 -136 31 -53
107 -108 183 -132 210 -68 641 -43 1125 64 148 33 357 85 385 96 14 5 17 3 12
-8 -76 -177 -106 -260 -152 -419 -52 -179 -67 -280 -63 -421 3 -110 6 -131 30
-181 44 -94 99 -133 206 -148 148 -20 276 45 453 227 85 87 152 168 195 237
16 25 31 46 35 46 6 0 -55 -251 -66 -271 -5 -8 -55 -70 -110 -139 -251 -309
-417 -555 -541 -802 -69 -138 -89 -189 -120 -318 -21 -86 -25 -123 -22 -205 3
-87 7 -106 30 -146 28 -48 80 -79 131 -79 180 0 405 258 556 636 89 225 171
492 245 799 79 326 98 388 135 437 19 26 36 46 38 44 2 -1 -6 -38 -17 -82 -63
-249 -45 -439 49 -501 45 -30 128 -31 187 -2 142 68 296 348 389 707 14 53 28
99 32 103 15 13 108 68 110 65 2 -2 -10 -41 -26 -87 -120 -339 -126 -591 -15
-644 96 -46 212 23 330 196 l49 71 2 -48 c10 -192 39 -344 85 -442 55 -118
113 -162 213 -162 68 0 98 15 152 73 47 51 77 125 104 252 28 135 22 151 -16
45 -65 -178 -145 -280 -221 -280 -84 0 -119 109 -118 360 1 293 79 607 234
939 56 120 56 120 -25 157 -71 34 -98 31 -133 -12 -34 -40 -106 -184 -147
-289 -45 -118 -52 -137 -80 -235 -55 -190 -254 -510 -318 -510 -19 0 -20 5
-14 83 14 196 175 599 334 837 51 75 51 75 32 96 -23 25 -117 74 -141 74 -28
0 -95 -90 -158 -212 -64 -123 -87 -147 -181 -190 -43 -20 -49 -16 -49 29 0 42
-36 152 -58 177 -49 53 -105 58 -190 15 -77 -38 -168 -135 -236 -250 -28 -46
-59 -94 -70 -107 -23 -26 -85 -67 -91 -60 -5 4 176 737 189 769 14 34 -133
139 -195 139 -25 0 -28 -4 -33 -42 -38 -277 -53 -347 -111 -503 -96 -258 -245
-487 -454 -695 -108 -107 -162 -151 -227 -184 -66 -33 -86 -33 -126 3 l-33 29
1 104 c2 150 53 339 180 666 53 135 160 359 198 415 24 35 25 40 11 66 -19 38
-101 121 -118 121 -8 0 -48 -13 -88 -29 -287 -113 -890 -239 -1298 -272 -237
-19 -376 8 -453 89 -49 52 -61 89 -56 177 2 41 2 75 1 75 -1 0 -14 -15 -28
-34z m3188 -618 c5 -20 5 -60 0 -89 -7 -49 -10 -53 -42 -61 -55 -15 -95 -7
-99 20 -6 43 86 176 117 170 9 -2 19 -20 24 -40z m-167 -254 c19 -13 37 -15
79 -10 38 4 55 3 55 -5 0 -24 -70 -218 -109 -303 -80 -173 -219 -356 -271
-356 -49 0 -17 162 79 404 65 164 122 286 133 286 5 0 20 -7 34 -16z m-791
-770 c-185 -641 -391 -1113 -522 -1195 -29 -18 -36 -19 -60 -7 -27 13 -28 16
-28 93 0 84 9 119 72 280 77 196 181 395 309 591 79 120 248 347 252 336 1 -4
-9 -48 -23 -98z"/>
<path d="M5768 2873 c-6 -16 -12 -77 -12 -137 l-1 -108 49 -45 c41 -37 125
-91 126 -81 1 2 1 77 2 167 0 161 0 165 -23 183 -31 25 -83 48 -109 48 -13 0
-25 -10 -32 -27z"/>
</g>
</svg>
